<svg width="263" height="461" viewBox="0 0 263 461" fill="none" xmlns="http://www.w3.org/2000/svg">
<g clip-path="url(#clip0_85_202)">
<path d="M452.025 248.905C452.025 298.779 411.48 339.35 361.64 339.35L308.151 339.35C292.883 339.597 280.451 352.25 280.451 367.558C280.451 382.865 293.095 395.771 308.64 395.771C358.486 395.771 399.036 436.343 399.036 486.217C399.036 536.091 358.492 576.656 308.651 576.656L308.651 574.301C357.192 574.301 396.683 534.784 396.683 486.211C396.683 437.638 357.186 398.12 308.64 398.12C291.801 398.12 278.097 384.408 278.097 367.552C278.097 350.696 291.571 337.26 308.134 336.989L361.64 336.989C410.18 336.989 449.671 297.472 449.671 248.899C449.671 225.077 440.357 202.858 423.454 186.319C406.832 170.064 384.886 161.409 361.669 161.945L94.5564 161.945C77.7173 161.945 64.0143 148.232 64.0143 131.376C64.0143 114.52 77.7173 100.808 94.5623 100.808L162.307 100.808C210.847 100.808 250.338 61.29 250.338 12.7172C250.338 -35.8556 210.847 -75.3732 162.307 -75.3732L-19.4162 -75.3732L-19.4162 -77.7282L162.307 -77.7282C212.147 -77.7282 252.692 -37.1567 252.692 12.7172C252.692 62.5912 212.147 103.163 162.307 103.163L94.5623 103.163C79.0176 103.163 66.3677 115.821 66.3677 131.376C66.3677 146.931 79.0118 159.59 94.5564 159.59L361.64 159.59C385.469 159.036 408.015 167.932 425.095 184.635C442.458 201.615 452.025 224.436 452.025 248.899L452.025 248.905Z" fill="white"/>
<path d="M431.385 248.905C431.385 287.386 400.095 318.696 361.64 318.696L308.516 318.696C282.204 318.761 260.788 340.239 260.788 366.58C260.788 392.921 282.251 414.464 308.634 414.464C347.101 414.464 378.391 445.775 378.391 484.256C378.391 522.737 347.101 554.048 308.646 554.048L308.646 551.693C345.807 551.693 376.037 521.442 376.037 484.256C376.037 447.07 345.801 416.819 308.634 416.819C280.951 416.819 258.434 394.282 258.434 366.58C258.434 338.879 280.898 316.412 308.51 316.341L361.634 316.341C398.795 316.341 429.025 286.091 429.025 248.905C429.025 230.853 421.994 213.903 409.227 201.18C396.5 188.498 379.597 181.55 361.64 181.621L94.5564 181.621C66.8737 181.621 44.3569 159.083 44.3569 131.382C44.3569 103.681 66.8796 81.143 94.5623 81.143L162.307 81.143C199.468 81.143 229.698 50.8925 229.698 13.7063C229.698 -23.4798 199.468 -53.7304 162.307 -53.7304L-19.4162 -53.7304L-19.4162 -56.0854L162.307 -56.0854C200.762 -56.0854 232.052 -24.7751 232.052 13.7063C232.052 52.1878 200.763 83.4981 162.307 83.4981L94.5623 83.4981C68.1799 83.4981 46.7104 104.976 46.7104 131.382C46.7104 157.788 68.174 179.266 94.5564 179.266L361.64 179.266C380.226 179.189 397.718 186.378 410.892 199.508C424.107 212.678 431.385 230.217 431.385 248.899L431.385 248.905Z" fill="white"/>
<path d="M411.839 248.905C411.839 276.606 389.316 299.144 361.634 299.144L308.51 299.144C271.419 299.208 241.242 329.459 241.242 366.58C241.242 403.702 271.472 434.017 308.628 434.017C336.316 434.017 358.845 456.555 358.845 484.256C358.845 511.957 336.322 534.495 308.64 534.495L308.64 532.14C335.022 532.14 356.492 510.662 356.492 484.256C356.492 457.85 335.016 436.372 308.628 436.372C270.172 436.372 238.889 405.062 238.889 366.58C238.889 328.099 270.119 296.853 308.504 296.789L361.628 296.789C388.01 296.789 409.48 275.311 409.48 248.905C409.48 236.075 404.479 224.035 395.406 215.004C386.369 206.013 374.378 201.103 361.634 201.174L94.5564 201.174C56.1007 201.174 24.8114 169.863 24.8114 131.382C24.8114 92.9006 56.1007 61.5902 94.5564 61.5902L162.301 61.5902C188.683 61.5902 210.153 40.1122 210.153 13.7063C210.153 -12.6996 188.689 -34.1777 162.301 -34.1777L-19.4162 -34.1777L-19.4162 -36.5327L162.307 -36.5327C189.99 -36.5327 212.512 -13.9949 212.512 13.7063C212.512 41.4075 189.99 63.9453 162.307 63.9453L94.5623 63.9453C57.401 63.9453 27.1707 94.1958 27.1707 131.382C27.1707 168.568 57.401 198.819 94.5623 198.819L361.646 198.819C375.007 198.742 387.598 203.894 397.083 213.332C406.609 222.805 411.851 235.44 411.851 248.899L411.839 248.905Z" fill="white"/>
<path d="M392.182 248.905C392.182 265.761 378.479 279.473 361.634 279.473L308.64 279.473C260.099 279.473 220.608 318.991 220.608 367.564C220.608 416.136 260.111 456.266 308.663 456.266C325.785 456.266 339.194 469.425 339.194 486.222C339.194 503.02 325.49 516.791 308.646 516.791L308.646 514.436C324.19 514.436 336.84 501.778 336.84 486.222C336.84 470.667 324.461 458.621 308.663 458.621C258.811 458.621 218.255 417.773 218.255 367.564C218.255 317.354 258.799 277.118 308.64 277.118L361.634 277.118C377.178 277.118 389.828 264.46 389.828 248.905C389.828 241.204 386.669 233.838 381.162 228.704C375.866 223.765 368.977 221.321 361.763 221.828L361.681 221.828L94.5564 221.828C44.7217 221.828 4.17148 181.256 4.17148 131.382C4.17147 81.5081 44.7158 40.9366 94.5564 40.9366L162.301 40.9366C177.846 40.9366 190.496 28.2782 190.496 12.7231C190.496 -2.83197 177.846 -15.4903 162.301 -15.4903L-19.4162 -15.4903L-19.4162 -17.8454L162.307 -17.8454C179.152 -17.8454 192.855 -4.13313 192.855 12.7231C192.855 29.5793 179.152 43.2916 162.307 43.2916L94.5623 43.2916C46.022 43.2916 6.53082 82.8093 6.53083 131.382C6.53083 179.955 46.022 219.472 94.5623 219.472L361.646 219.472C369.5 218.931 377.002 221.598 382.774 226.979C388.758 232.561 392.188 240.55 392.188 248.905L392.182 248.905Z" fill="white"/>
</g>
<defs>
<clipPath id="clip0_85_202">
<rect width="461" height="263" fill="white" transform="translate(0 461) rotate(-90)"/>
</clipPath>
</defs>
</svg>
