<svg xmlns="http://www.w3.org/2000/svg" width="148" height="329" viewBox="0 0 148 329" fill="none"><g clip-path="url(#clip0_123_14)"><path d="M3.99988 329.752C3.99988 279.878 44.5442 239.306 94.3848 239.306L147.873 239.306C163.141 239.059 175.574 226.406 175.574 211.099C175.574 195.791 162.93 182.885 147.385 182.885C97.5385 182.885 56.9882 142.314 56.9882 92.4396C56.9882 42.5657 97.5326 2.00001 147.373 2.00002L147.373 4.35506C98.8329 4.35506 59.3417 43.8727 59.3417 92.4455C59.3417 141.018 98.8388 180.536 147.385 180.536C164.224 180.536 177.927 194.248 177.927 211.104C177.927 227.961 164.453 241.396 147.891 241.667L94.3848 241.667C45.8445 241.667 6.35335 281.185 6.35335 329.757C6.35335 353.579 15.6672 375.799 32.571 392.337C49.1923 408.593 71.1384 417.247 94.3554 416.712L361.468 416.712C378.307 416.712 392.01 430.424 392.01 447.28C392.01 464.136 378.307 477.849 361.462 477.849L293.718 477.849C245.177 477.849 205.686 517.366 205.686 565.939C205.686 614.512 245.177 654.029 293.718 654.029L475.441 654.029L475.441 656.384L293.718 656.384C243.877 656.384 203.333 615.813 203.333 565.939C203.333 516.065 243.877 475.493 293.718 475.493L361.462 475.494C377.007 475.494 389.657 462.835 389.657 447.28C389.657 431.725 377.013 419.067 361.468 419.067L94.3848 419.067C70.5559 419.62 48.0097 410.724 30.9294 394.021C13.5667 377.041 3.99988 354.22 3.99988 329.757L3.99988 329.752Z" fill="white"></path><path d="M24.6398 329.752C24.6398 291.27 55.9291 259.96 94.3848 259.96L147.508 259.96C173.82 259.895 195.237 238.417 195.237 212.076C195.237 185.735 173.773 164.192 147.391 164.192C108.923 164.192 77.634 132.882 77.634 94.4002C77.634 55.9188 108.923 24.6084 147.379 24.6084L147.379 26.9635C110.218 26.9635 79.9875 57.214 79.9875 94.4002C79.9875 131.586 110.224 161.837 147.391 161.837C175.073 161.837 197.59 184.375 197.59 212.076C197.59 239.777 175.126 262.244 147.514 262.315L94.3907 262.315C57.2294 262.315 26.9992 292.565 26.9992 329.752C26.9992 347.803 34.0301 364.753 46.7977 377.477C59.5241 390.158 76.4278 397.106 94.3848 397.035L361.468 397.035C389.151 397.035 411.668 419.573 411.668 447.274C411.668 474.975 389.145 497.513 361.462 497.513L293.718 497.513C256.556 497.513 226.326 527.764 226.326 564.95C226.326 602.136 256.556 632.387 293.718 632.387L475.441 632.387L475.441 634.742L293.718 634.742C255.262 634.742 223.973 603.431 223.973 564.95C223.973 526.468 255.262 495.158 293.718 495.158L361.462 495.158C387.845 495.158 409.314 473.68 409.314 447.274C409.314 420.868 387.85 399.39 361.468 399.39L94.3848 399.39C75.7983 399.467 58.3062 392.278 45.1326 379.149C31.9179 365.978 24.6398 348.439 24.6398 329.757L24.6398 329.752Z" fill="white"></path><path d="M44.1854 329.752C44.1854 302.05 66.708 279.513 94.3907 279.513L147.514 279.513C184.605 279.448 214.782 249.197 214.782 212.076C214.782 174.955 184.552 144.639 147.397 144.639C119.708 144.639 97.1796 122.101 97.1796 94.4002C97.1796 66.699 119.702 44.1612 147.385 44.1612L147.385 46.5163C121.003 46.5163 99.533 67.9943 99.533 94.4002C99.533 120.806 121.008 142.284 147.397 142.284C185.852 142.284 217.136 173.594 217.136 212.076C217.136 250.557 185.905 281.803 147.52 281.868L94.3966 281.868C68.0142 281.868 46.5447 303.346 46.5447 329.752C46.5447 342.581 51.5458 354.621 60.6185 363.652C69.6558 372.643 81.6467 377.553 94.3907 377.482L361.468 377.482C399.924 377.483 431.213 408.793 431.213 447.274C431.213 485.756 399.924 517.066 361.468 517.066L293.724 517.066C267.341 517.066 245.872 538.544 245.872 564.95C245.872 591.356 267.335 612.834 293.724 612.834L475.441 612.834L475.441 615.189L293.718 615.189C266.035 615.189 243.512 592.651 243.512 564.95C243.512 537.249 266.035 514.711 293.718 514.711L361.462 514.711C398.623 514.711 428.854 484.46 428.854 447.274C428.854 410.088 398.623 379.838 361.462 379.838L94.379 379.838C81.0171 379.914 68.4261 374.762 58.9416 365.325C49.4159 355.851 44.1736 343.217 44.1736 329.758L44.1854 329.752Z" fill="white"></path><path d="M63.8427 329.752C63.8427 312.895 77.5458 299.183 94.3907 299.183L147.385 299.183C195.925 299.183 235.416 259.665 235.416 211.093C235.416 162.52 195.913 122.39 147.361 122.39C130.24 122.39 116.831 109.231 116.831 92.4337C116.831 75.6364 130.534 61.8652 147.379 61.8653L147.379 64.2203C131.834 64.2203 119.184 76.8787 119.184 92.4337C119.184 107.989 131.564 120.035 147.361 120.035C197.214 120.035 237.77 160.883 237.77 211.093C237.77 261.302 197.225 301.538 147.385 301.538L94.3907 301.538C78.846 301.538 66.1962 314.197 66.1962 329.752C66.1962 337.453 69.3557 344.818 74.8628 349.952C80.1581 354.892 87.0479 357.335 94.2613 356.829L94.3437 356.829L361.468 356.829C411.303 356.829 451.853 397.4 451.853 447.274C451.853 497.148 411.309 537.72 361.468 537.72L293.724 537.72C278.179 537.72 265.529 550.378 265.529 565.933C265.529 581.488 278.179 594.147 293.724 594.147L475.441 594.147L475.441 596.502L293.718 596.502C276.873 596.502 263.17 582.789 263.17 565.933C263.17 549.077 276.873 535.365 293.718 535.365L361.462 535.365C410.002 535.365 449.494 495.847 449.494 447.274C449.494 398.701 410.002 359.184 361.462 359.184L94.379 359.184C86.5243 359.725 79.0226 357.058 73.2507 351.677C67.267 346.096 63.8368 338.106 63.8368 329.752L63.8427 329.752Z" fill="white"></path></g><defs><clipPath id="clip0_123_14"><rect width="329" height="148" fill="white" transform="translate(148) rotate(90)"></rect></clipPath></defs></svg>