<svg xmlns="http://www.w3.org/2000/svg" width="194" height="148" viewBox="0 0 194 148" fill="none"><g clip-path="url(#clip0_123_35)"><path d="M-135.752 3.99962C-85.8776 3.99963 -45.306 44.544 -45.306 94.3846L-45.306 147.873C-45.0588 163.141 -32.4063 175.573 -17.0985 175.573C-1.7907 175.573 11.1149 162.929 11.1149 147.385C11.1149 97.5382 51.6865 56.988 101.56 56.988C151.434 56.988 192 97.5323 192 147.373L189.645 147.373C189.645 98.8326 150.127 59.3414 101.555 59.3414C52.9818 59.3414 13.4641 98.8385 13.4641 147.385C13.4641 164.224 -0.248155 177.927 -17.1044 177.927C-33.9606 177.927 -47.3961 164.453 -47.667 147.891L-47.667 94.3846C-47.667 45.8443 -87.1846 6.35309 -135.757 6.35309C-159.579 6.35309 -181.799 15.6669 -198.337 32.5707C-214.593 49.1921 -223.247 71.1382 -222.712 94.3551L-222.712 361.468C-222.712 378.307 -236.424 392.01 -253.28 392.01C-270.136 392.01 -283.849 378.307 -283.849 361.462L-283.849 293.717C-283.848 245.177 -323.366 205.686 -371.939 205.686C-420.512 205.686 -460.029 245.177 -460.029 293.717L-460.029 475.44L-462.384 475.44L-462.384 293.717C-462.384 243.877 -421.813 203.332 -371.939 203.332C-322.065 203.332 -281.493 243.877 -281.493 293.717L-281.493 361.462C-281.493 377.007 -268.835 389.656 -253.28 389.656C-237.725 389.656 -225.067 377.012 -225.067 361.468L-225.067 94.3845C-225.62 70.5557 -216.724 48.0095 -200.021 30.9292C-183.041 13.5665 -160.22 3.99962 -135.757 3.99962L-135.752 3.99962Z" fill="white"></path><path d="M-135.752 24.6395C-97.2701 24.6396 -65.9598 55.9289 -65.9598 94.3846L-65.9598 147.508C-65.895 173.82 -44.417 195.237 -18.0758 195.237C8.26534 195.237 29.8081 173.773 29.8081 147.391C29.8081 108.923 61.1184 77.6338 99.5999 77.6338C138.081 77.6338 169.392 108.923 169.392 147.379L167.037 147.379C167.037 110.218 136.786 79.9873 99.5999 79.9872C62.4137 79.9872 32.1632 110.223 32.1632 147.391C32.1632 175.073 9.62538 197.59 -18.0758 197.59C-45.777 197.59 -68.2442 175.126 -68.3148 147.514L-68.3148 94.3904C-68.3148 57.2292 -98.5653 26.9989 -135.752 26.9989C-153.803 26.9989 -170.753 34.0299 -183.476 46.7974C-196.158 59.5238 -203.106 76.4276 -203.035 94.3845L-203.035 361.468C-203.035 389.15 -225.573 411.667 -253.274 411.667C-280.975 411.667 -303.513 389.145 -303.513 361.462L-303.513 293.717C-303.513 256.556 -333.764 226.326 -370.95 226.326C-408.136 226.326 -438.387 256.556 -438.387 293.717L-438.387 475.44L-440.742 475.44L-440.742 293.717C-440.742 255.262 -409.431 223.972 -370.95 223.972C-332.468 223.972 -301.158 255.262 -301.158 293.717L-301.158 361.462C-301.158 387.844 -279.68 409.314 -253.274 409.314C-226.868 409.314 -205.39 387.85 -205.39 361.468L-205.39 94.3845C-205.467 75.798 -198.278 58.3059 -185.149 45.1324C-171.978 31.9177 -154.439 24.6395 -135.757 24.6395L-135.752 24.6395Z" fill="white"></path><path d="M-135.751 44.1851C-108.05 44.1851 -85.5125 66.7078 -85.5125 94.3904L-85.5125 147.514C-85.4477 184.605 -55.1972 214.782 -18.0758 214.782C19.0456 214.782 49.3609 184.552 49.3609 147.396C49.3609 119.708 71.8987 97.1793 99.5999 97.1793C127.301 97.1793 149.839 119.702 149.839 147.385L147.484 147.385C147.484 121.002 126.006 99.5328 99.5999 99.5328C73.194 99.5328 51.716 121.008 51.716 147.396C51.7159 185.852 20.4056 217.136 -18.0758 217.136C-56.5572 217.136 -87.8028 185.905 -87.8675 147.52L-87.8675 94.3963C-87.8675 68.014 -109.346 46.5444 -135.751 46.5444C-148.581 46.5444 -160.621 51.5456 -169.652 60.6182C-178.643 69.6555 -183.553 81.6464 -183.482 94.3904L-183.482 361.468C-183.482 399.924 -214.793 431.213 -253.274 431.213C-291.756 431.213 -323.066 399.923 -323.066 361.468L-323.066 293.723C-323.066 267.341 -344.544 245.871 -370.95 245.871C-397.356 245.871 -418.834 267.335 -418.834 293.723L-418.834 475.44L-421.189 475.44L-421.189 293.717C-421.189 266.035 -398.651 243.512 -370.95 243.512C-343.249 243.512 -320.711 266.035 -320.711 293.717L-320.711 361.462C-320.711 398.623 -290.46 428.853 -253.274 428.854C-216.088 428.854 -185.837 398.623 -185.837 361.462L-185.837 94.3787C-185.914 81.0169 -180.762 68.4258 -171.324 58.9413C-161.851 49.4157 -149.216 44.1733 -135.757 44.1733L-135.751 44.1851Z" fill="white"></path><path d="M-135.752 63.8424C-118.895 63.8424 -105.183 77.5455 -105.183 94.3904L-105.183 147.385C-105.183 195.925 -65.6654 235.416 -17.0926 235.416C31.4802 235.416 71.6101 195.913 71.6102 147.361C71.6102 130.24 84.769 116.831 101.566 116.831C118.364 116.831 132.135 130.534 132.135 147.379L129.78 147.379C129.78 131.834 117.121 119.184 101.566 119.184C86.0112 119.184 73.9652 131.563 73.9652 147.361C73.9652 197.213 33.1169 237.77 -17.0926 237.77C-67.3022 237.77 -107.538 197.225 -107.538 147.385L-107.538 94.3904C-107.538 78.8458 -120.196 66.1959 -135.752 66.1959C-143.453 66.1959 -150.818 69.3554 -155.952 74.8625C-160.892 80.1578 -163.335 87.0476 -162.829 94.261L-162.829 94.3434L-162.829 361.468C-162.829 411.303 -203.4 451.853 -253.274 451.853C-303.148 451.853 -343.72 411.308 -343.72 361.468L-343.72 293.723C-343.72 278.179 -356.378 265.529 -371.933 265.529C-387.488 265.529 -400.147 278.179 -400.147 293.723L-400.147 475.44L-402.502 475.44L-402.502 293.717C-402.502 276.872 -388.789 263.169 -371.933 263.169C-355.077 263.169 -341.365 276.872 -341.365 293.717L-341.365 361.462C-341.365 410.002 -301.847 449.493 -253.274 449.493C-204.701 449.493 -165.184 410.002 -165.184 361.462L-165.184 94.3787C-165.725 86.524 -163.058 79.0223 -157.677 73.2504C-152.096 67.2667 -144.106 63.8366 -135.752 63.8366L-135.752 63.8424Z" fill="white"></path></g><defs><clipPath id="clip0_123_35"><rect width="194" height="148" fill="white" transform="translate(194 148) rotate(-180)"></rect></clipPath></defs></svg>