<svg xmlns="http://www.w3.org/2000/svg" width="102" height="243" viewBox="0 0 102 243" fill="none"><g clip-path="url(#clip0_123_22)"><path d="M114.633 -212C164.507 -212 205.078 -171.456 205.078 -121.615L205.078 -68.1266C205.325 -52.8585 217.978 -40.4263 233.286 -40.4263C248.594 -40.4263 261.499 -53.0703 261.499 -68.615C261.499 -118.461 302.071 -159.012 351.945 -159.012C401.819 -159.012 442.384 -118.467 442.384 -68.6268L440.029 -68.6268C440.029 -117.167 400.512 -156.658 351.939 -156.658C303.366 -156.658 263.848 -117.161 263.848 -68.615C263.848 -51.7759 250.136 -38.0728 233.28 -38.0728C216.424 -38.0728 202.988 -51.5464 202.717 -68.109L202.717 -121.615C202.717 -170.155 163.2 -209.647 114.627 -209.647C90.8055 -209.647 68.5857 -200.333 52.0474 -183.429C35.7917 -166.808 27.1369 -144.861 27.6727 -121.644L27.6727 145.468C27.6727 162.307 13.9605 176.01 -2.89578 176.01C-19.752 176.01 -33.4643 162.307 -33.4643 145.462L-33.4643 77.7178C-33.4643 29.1775 -72.9819 -10.3137 -121.555 -10.3137C-170.128 -10.3137 -209.645 29.1776 -209.645 77.7178L-209.645 259.441L-212 259.441L-212 77.7178C-212 27.8773 -171.429 -12.6671 -121.555 -12.6671C-71.6808 -12.6671 -31.1092 27.8772 -31.1092 77.7178L-31.1092 145.462C-31.1092 161.007 -18.4509 173.657 -2.89578 173.657C12.6593 173.657 25.3176 161.013 25.3176 145.468L25.3176 -121.615C24.7642 -145.444 33.6603 -167.99 50.3635 -185.07C67.3434 -202.433 90.1638 -212 114.627 -212L114.633 -212Z" fill="white"></path><path d="M114.633 -191.36C153.114 -191.36 184.424 -160.071 184.424 -121.615L184.424 -68.4914C184.489 -42.1796 205.967 -20.7631 232.308 -20.7631C258.65 -20.7631 280.192 -42.2267 280.192 -68.6091C280.192 -107.077 311.503 -138.366 349.984 -138.366C388.466 -138.366 419.776 -107.077 419.776 -68.6209L417.421 -68.6209C417.421 -105.782 387.17 -136.012 349.984 -136.012C312.798 -136.012 282.547 -105.776 282.547 -68.6091C282.547 -40.9264 260.01 -18.4096 232.308 -18.4096C204.607 -18.4096 182.14 -40.8734 182.069 -68.4855L182.069 -121.609C182.069 -158.77 151.819 -189.001 114.633 -189.001C96.5813 -189.001 79.6308 -181.97 66.9077 -169.202C54.2258 -156.476 47.2784 -139.572 47.3491 -121.615L47.3491 145.468C47.3491 173.151 24.8113 195.668 -2.88988 195.668C-30.5911 195.668 -53.1289 173.145 -53.1289 145.462L-53.1289 77.7178C-53.1289 40.5566 -83.3794 10.3263 -120.566 10.3263C-157.752 10.3263 -188.002 40.5566 -188.002 77.7178L-188.002 259.441L-190.357 259.441L-190.357 77.7178C-190.357 39.2622 -159.047 7.9728 -120.566 7.97279C-82.0842 7.97279 -50.7739 39.2621 -50.7739 77.7178L-50.7738 145.462C-50.7738 171.845 -29.2958 193.314 -2.88988 193.314C23.5161 193.314 44.994 171.851 44.994 145.468L44.994 -121.615C44.9175 -140.202 52.1062 -157.694 65.2356 -170.867C78.4062 -184.082 95.9454 -191.36 114.627 -191.36L114.633 -191.36Z" fill="white"></path><path d="M114.633 -171.814C142.334 -171.815 164.872 -149.292 164.872 -121.609L164.872 -68.4855C164.936 -31.3949 195.187 -1.21753 232.308 -1.21753C269.43 -1.21753 299.745 -31.4478 299.745 -68.6032C299.745 -96.2917 322.283 -118.82 349.984 -118.82C377.685 -118.82 400.223 -96.2976 400.223 -68.615L397.868 -68.615C397.868 -94.9974 376.39 -116.467 349.984 -116.467C323.578 -116.467 302.1 -94.9915 302.1 -68.6032C302.1 -30.1475 270.79 1.13594 232.308 1.13594C193.827 1.13594 162.581 -30.0946 162.517 -68.4797L162.517 -121.603C162.517 -147.986 141.039 -169.455 114.633 -169.455C101.804 -169.455 89.7634 -164.454 80.7318 -155.381C71.7414 -146.344 66.8312 -134.353 66.9018 -121.609L66.9019 145.468C66.9019 183.924 35.5916 215.213 -2.88988 215.213C-41.3713 215.213 -72.6817 183.924 -72.6817 145.468L-72.6817 77.7237C-72.6817 51.3413 -94.1597 29.8718 -120.566 29.8718C-146.972 29.8718 -168.45 51.3354 -168.45 77.7237L-168.45 259.441L-170.805 259.441L-170.805 77.7178C-170.805 50.0352 -148.267 27.5125 -120.566 27.5125C-92.8644 27.5124 -70.3266 50.0351 -70.3266 77.7178L-70.3266 145.462C-70.3266 182.624 -40.076 212.854 -2.88988 212.854C34.2963 212.854 64.5468 182.624 64.5468 145.462L64.5468 -121.621C64.4702 -134.983 69.6219 -147.574 79.0598 -157.058C88.5329 -166.584 101.168 -171.826 114.627 -171.826L114.633 -171.814Z" fill="white"></path><path d="M114.633 -152.157C131.489 -152.157 145.201 -138.454 145.201 -121.609L145.201 -68.615C145.201 -20.0747 184.719 19.4165 233.292 19.4165C281.864 19.4165 321.994 -20.0865 321.994 -68.6385C321.994 -85.76 335.153 -99.1689 351.951 -99.1689C368.748 -99.1689 382.519 -85.4658 382.519 -68.6209L380.164 -68.6209C380.164 -84.1655 367.506 -96.8154 351.951 -96.8154C336.395 -96.8154 324.349 -84.4362 324.349 -68.6385C324.349 -18.7862 283.501 21.7699 233.292 21.77C183.082 21.77 142.846 -18.7744 142.846 -68.615L142.846 -121.609C142.846 -137.154 130.188 -149.804 114.633 -149.804C106.932 -149.804 99.5663 -146.644 94.4323 -141.137C89.4926 -135.842 87.0492 -128.952 87.5556 -121.739L87.5556 -121.656L87.5556 145.468C87.5556 195.303 46.9841 235.853 -2.88989 235.853C-52.7638 235.853 -93.3354 195.309 -93.3354 145.468L-93.3354 77.7237C-93.3354 62.179 -105.994 49.5291 -121.549 49.5291C-137.104 49.5291 -149.762 62.179 -149.762 77.7237L-149.762 259.441L-152.117 259.441L-152.117 77.7178C-152.117 60.8729 -138.405 47.1698 -121.549 47.1698C-104.693 47.1698 -90.9803 60.8729 -90.9803 77.7178L-90.9803 145.462C-90.9803 194.003 -51.4627 233.494 -2.88989 233.494C45.6829 233.494 85.2005 194.003 85.2005 145.462L85.2005 -121.621C84.6589 -129.476 87.3259 -136.977 92.7072 -142.749C98.2887 -148.733 106.278 -152.163 114.633 -152.163L114.633 -152.157Z" fill="white"></path></g><defs><clipPath id="clip0_123_22"><rect width="243" height="102" fill="white" transform="translate(0 243) rotate(-90)"></rect></clipPath></defs></svg>